PathFileType	4	(x/y/z)	S08_PSF_T04
DataRate	CameraRate	NumFrames	NumMarkers	Units	OrigDataRate	OrigDataStartFrame	OrigNumFrames
240	240	10	51	mm	240	106	420
Frame#	Time	Sternum			R.Acromium			L.Acromium			Top.Head			R.ASIS			L.ASIS			R.PSIS			L.PSIS			R.Great.Tro			L.Great.Tro			R.Iliac.Crest			L.Iliac.Crest			V.Sacral			R.Thigh.Upper.Post			R.Thigh.Lower.Ant			R.Thigh.Lower.Post			R.Thigh.Upper.Ant			R.Knee.Lat			R.Knee.Med			R.Shank.Upper.Post			R.Shank.Lower.Ant			R.Shank.Lower.Post			R.Shank.Upper.Ant			R.Ankle.Lat			R.Ankle.Med			R.Heel.Upper			R.Heel.Med			R.Heel.Lat			R.Toe.Lat			R.Toe.Med			R.Toe.Tip			L.Thigh.Upper.Post			L.Thigh.Lower.Ant			L.Thigh.Lower.Post			L.Thigh.Upper.Ant			L.Knee.Lat			L.Knee.Med			L.Shank.Upper.Post			L.Shank.Lower.Ant			L.Shank.Lower.Post			L.Shank.Upper.Ant			L.Ankle.Lat			L.Ankle.Med			L.Heel.Upper			L.Heel.Med			L.Heel.Lat			L.Toe.Lat			L.Toe.Med			L.Toe.Tip			Cervical.Spine			Back			
		X1	Y1	Z1	X2	Y2	Z2	X3	Y3	Z3	X4	Y4	Z4	X5	Y5	Z5	X6	Y6	Z6	X7	Y7	Z7	X8	Y8	Z8	X9	Y9	Z9	X10	Y10	Z10	X11	Y11	Z11	X12	Y12	Z12	X13	Y13	Z13	X14	Y14	Z14	X15	Y15	Z15	X16	Y16	Z16	X17	Y17	Z17	X18	Y18	Z18	X19	Y19	Z19	X20	Y20	Z20	X21	Y21	Z21	X22	Y22	Z22	X23	Y23	Z23	X24	Y24	Z24	X25	Y25	Z25	X26	Y26	Z26	X27	Y27	Z27	X28	Y28	Z28	X29	Y29	Z29	X30	Y30	Z30	X31	Y31	Z31	X32	Y32	Z32	X33	Y33	Z33	X34	Y34	Z34	X35	Y35	Z35	X36	Y36	Z36	X37	Y37	Z37	X38	Y38	Z38	X39	Y39	Z39	X40	Y40	Z40	X41	Y41	Z41	X42	Y42	Z42	X43	Y43	Z43	X44	Y44	Z44	X45	Y45	Z45	X46	Y46	Z46	X47	Y47	Z47	X48	Y48	Z48	X49	Y49	Z49	X50	Y50	Z50	X51	Y51	Z51	

106	0.4375	-927.16	1223.6	326.18	-1037.8	1462.1	506.72	-1056.8	1495	174.92	-1029.4	1782.3	354.57	-945.5	1015.8	434.23	-951.8	1014.8	200.37	-1152.7	1031.1	369.22	-1150.8	1036	275.67	-996.35	907.29	509.32	-1054.7	907.77	143.88	-1041.4	1079.4	486.58	-1052.3	1094.5	177.41	-1167.5	993.82	323.13	-938.83	712.63	498.73	-831.86	649.29	460.7	-899.49	631.45	477.68	-865.79	736.9	480.02	-826.08	549.83	455.69	-856.49	540.39	331.79	-857.6	358.57	467.69	-787.22	306.74	446.34	-846.16	283.08	461.82	-799.43	383.78	456.28	-816.64	114.37	428.78	-786.5	136.83	351.66	-853.26	69.876	378.41	-833.11	47.338	352.11	-844.13	46.497	412.98	NaN	NaN	NaN	-654.34	90.283	352.82	-598.7	121.74	400.59	-1094.5	713	157.94	-1026.1	612.1	190.9	-1094.2	623.12	180.01	-1023.8	697.85	162.76	-1101.3	515.17	206.79	-1105.5	519.31	331.45	-1202.7	351.21	206.43	-1157.1	254.16	236.22	-1217.9	285.34	220.14	-1165.4	313.92	235.11	-1243.8	110.69	249.32	-1226.9	110.39	335.72	-1303.5	81.753	296.69	-1294.3	45.928	324.97	-1296.5	57.99	261.6	-1120.7	40.416	230.64	-1105.9	36.965	346.99	-1038.7	50.407	300.1	-1110.6	1520.8	336.07	-1166.7	1239.5	341.95
107	0.44167	-921.75	1222.8	326.24	-1032.4	1461.3	506.81	-1051.3	1494.2	175.01	-1024.1	1781.5	354.76	-940.04	1014.9	434.2	-946.64	1013.8	200.31	-1147.6	1030.4	369.54	-1146.1	1035.4	275.98	-990.95	906.49	509.47	-1049.9	907.16	143.94	-1035.9	1078.6	486.74	-1047.1	1093.7	177.61	-1162.1	993.11	323.46	-934.31	711.47	499.09	-827.61	647.87	460.57	-895.2	630.22	477.92	-861.29	735.6	480.13	-821.68	548.77	455.66	-852.49	539.01	331.89	-849.19	356.81	467.55	-777.66	306.71	445.99	-835.81	281.61	461.53	-791.63	383.41	456.04	-802.32	113.56	427.95	-772.78	136.81	350.83	-837.85	68.236	377.49	-817.24	46.209	351.12	-828.15	45.012	412	NaN	NaN	NaN	-639.61	93.468	351.72	-584.6	126.21	399.45	-1090.9	712.8	158.12	-1022.9	611.5	190.82	-1090.7	622.99	179.91	-1020.8	697.05	163.08	-1098.7	514.94	206.78	-1102.6	519.06	331.48	-1201.2	351.47	206.6	-1156	254.24	236.19	-1216.5	285.77	220.24	-1165	313.28	235.94	-1243.2	111.25	249.42	-1226.4	110.8	335.78	-1303.3	82.289	296.81	-1294.1	46.467	325.11	-1296.4	58.551	261.74	-1120.7	40.377	230.65	-1105.8	36.947	346.98	-1038.5	50.113	300.09	-1105.3	1520	336.13	-1161.1	1238.7	341.99
108	0.44583	-916.31	1221.9	326.31	-1027	1460.4	506.91	-1045.8	1493.4	175.11	-1018.9	1780.7	354.97	-934.56	1014	434.19	-941.44	1012.8	200.27	-1142.3	1029.6	369.88	-1141.1	1034.8	276.31	-985.51	905.66	509.63	-1045.2	906.54	143.99	-1030.4	1077.8	486.9	-1041.8	1092.9	177.81	-1156.6	992.39	323.8	-929.78	710.29	499.45	-823.35	646.43	460.45	-890.91	628.97	478.18	-856.78	734.28	480.26	-817.32	547.67	455.66	-848.52	537.61	331.99	-840.91	355.12	467.4	-768.29	306.72	445.64	-825.66	280.23	461.23	-783.97	383.06	455.8	-788.27	112.9	427.1	-759.35	136.93	349.99	-822.74	66.791	376.57	-801.67	45.277	350.12	-812.46	43.716	411	NaN	NaN	NaN	-625.25	96.759	350.57	-570.89	130.74	398.27	-1087.4	712.6	158.32	-1019.6	610.9	190.73	-1087.2	622.87	179.79	-1017.6	696.3	163.32	-1096	514.7	206.76	-1099.6	518.8	331.5	-1199.6	351.77	206.76	-1154.9	254.34	236.15	-1215.3	286.18	220.38	-1164.3	312.82	236.53	-1242.7	111.82	249.52	-1225.9	111.24	335.82	-1303	82.877	296.9	-1293.9	47.069	325.23	-1296.2	59.159	261.86	-1120.6	40.331	230.65	-1105.7	36.937	346.97	-1038.4	49.812	300.07	-1100	1519.2	336.2	-1155.5	1237.8	342.04
109	0.45	-910.85	1221.1	326.39	-1021.6	1459.5	507.02	-1040.3	1492.6	175.21	-1013.6	1779.8	355.18	-929.06	1013.2	434.19	-936.22	1011.9	200.25	-1136.8	1028.9	370.23	-1136	1034.2	276.65	-980.04	904.81	509.79	-1040.4	905.94	144.05	-1024.8	1076.9	487.07	-1036.5	1092.1	178.03	-1151.1	991.67	324.15	-925.24	709.11	499.81	-819.09	644.97	460.35	-886.61	627.71	478.44	-852.24	732.95	480.42	-812.97	546.55	455.67	-844.59	536.2	332.09	-832.76	353.48	467.25	-759.11	306.76	445.28	-815.75	278.94	460.91	-776.44	382.73	455.58	-774.52	112.37	426.24	-746.26	137.19	349.14	-807.96	65.531	375.64	-786.44	44.53	349.1	-797.09	42.597	410	NaN	NaN	NaN	-611.29	100.13	349.38	-557.58	135.3	397.06	-1083.8	712.4	158.53	-1016.3	610.32	190.63	-1083.7	622.75	179.67	-1014.2	695.59	163.48	-1093.3	514.47	206.74	-1096.6	518.54	331.53	-1197.9	352.09	206.89	-1153.7	254.45	236.11	-1214	286.6	220.56	-1163.2	312.55	236.85	-1242.2	112.39	249.61	-1225.5	111.72	335.84	-1302.8	83.519	296.95	-1293.7	47.737	325.34	-1296	59.817	261.96	-1120.6	40.276	230.65	-1105.6	36.935	346.95	-1038.2	49.504	300.05	-1094.7	1518.4	336.27	-1149.9	1236.9	342.09
110	0.45417	-905.36	1220.2	326.48	-1016.2	1458.7	507.14	-1034.8	1491.8	175.31	-1008.3	1779	355.41	-923.54	1012.3	434.21	-930.98	1010.9	200.24	-1131.3	1028.2	370.59	-1130.8	1033.5	277.01	-974.54	903.95	509.96	-1035.6	905.34	144.12	-1019.2	1076.1	487.25	-1031.2	1091.2	178.26	-1145.6	990.94	324.51	-920.68	707.94	500.17	-814.79	643.51	460.26	-882.3	626.45	478.69	-847.67	731.61	480.61	-808.64	545.42	455.69	-840.65	534.79	332.2	-824.76	351.9	467.09	-750.13	306.81	444.92	-806.06	277.74	460.59	-769.06	382.41	455.36	-761.09	111.96	425.36	-733.52	137.56	348.29	-793.55	64.441	374.7	-771.59	43.95	348.07	-782.08	41.639	408.97	NaN	NaN	NaN	-597.74	103.54	348.17	-544.7	139.85	395.84	-1080.2	712.19	158.76	-1013	609.73	190.52	-1080	622.65	179.55	-1010.7	694.92	163.58	-1090.4	514.24	206.73	-1093.5	518.27	331.56	-1196.2	352.44	206.99	-1152.4	254.57	236.05	-1212.8	287	220.79	-1161.6	312.47	236.89	-1241.7	112.97	249.7	-1225	112.24	335.84	-1302.5	84.218	296.97	-1293.6	48.473	325.42	-1295.8	60.527	262.03	-1120.5	40.213	230.65	-1105.5	36.942	346.93	-1038	49.188	300.02	-1089.4	1517.6	336.36	-1144.2	1235.9	342.16
111	0.45833	-899.86	1219.4	326.59	-1010.8	1457.8	507.27	-1029.2	1491	175.42	-1003	1778.2	355.65	-918	1011.3	434.23	-925.7	1010	200.25	-1125.7	1027.4	370.97	-1125.4	1032.8	277.39	-969	903.08	510.13	-1030.7	904.75	144.19	-1013.6	1075.3	487.44	-1025.9	1090.4	178.5	-1140.1	990.21	324.88	-916.08	706.77	500.51	-810.46	642.06	460.19	-877.95	625.2	478.94	-843.06	730.28	480.81	-804.31	544.28	455.71	-836.71	533.4	332.3	-816.9	350.39	466.91	-741.37	306.87	444.56	-796.62	276.61	460.24	-761.81	382.09	455.14	-748.02	111.65	424.48	-721.16	138.02	347.43	-779.53	63.508	373.76	-757.15	43.518	347.03	-767.48	40.828	407.94	NaN	NaN	NaN	-584.63	106.96	346.96	-532.26	144.36	394.62	-1076.5	711.98	158.99	-1009.6	609.16	190.4	-1076.3	622.54	179.44	-1007.1	694.29	163.63	-1087.5	514.01	206.71	-1090.2	517.99	331.59	-1194.3	352.83	207.08	-1151.1	254.71	235.98	-1211.5	287.41	221.04	-1159.7	312.59	236.68	-1241.2	113.54	249.77	-1224.4	112.8	335.82	-1302.1	84.975	296.95	-1293.3	49.28	325.49	-1295.6	61.293	262.09	-1120.4	40.143	230.64	-1105.3	36.96	346.9	-1037.9	48.865	299.99	-1084	1516.8	336.45	-1138.5	1235	342.23
112	0.4625	-894.32	1218.5	326.71	-1005.3	1456.9	507.41	-1023.7	1490.1	175.54	-997.75	1777.3	355.9	-912.44	1010.4	434.28	-920.4	1009	200.27	-1120	1026.6	371.35	-1119.9	1032.1	277.78	-963.43	902.2	510.3	-1025.8	904.17	144.28	-1007.9	1074.4	487.64	-1020.5	1089.6	178.75	-1134.5	989.47	325.26	-911.46	705.61	500.83	-806.08	640.64	460.15	-873.57	623.97	479.16	-838.4	728.95	481.03	-799.97	543.15	455.74	-832.73	532.03	332.4	-809.2	348.94	466.72	-732.83	306.94	444.19	-787.44	275.56	459.88	-754.7	381.78	454.93	-735.35	111.44	423.58	-709.2	138.56	346.58	-765.94	62.713	372.8	-743.15	43.214	345.97	-753.31	40.148	406.89	NaN	NaN	NaN	-571.97	110.35	345.74	-520.28	148.78	393.41	-1072.7	711.77	159.22	-1006.1	608.59	190.28	-1072.6	622.44	179.33	-1003.4	693.69	163.63	-1084.6	513.78	206.7	-1086.9	517.71	331.62	-1192.4	353.24	207.15	-1149.8	254.87	235.9	-1210.3	287.82	221.33	-1157.3	312.9	236.2	-1240.7	114.12	249.83	-1223.8	113.4	335.78	-1301.8	85.794	296.91	-1293.1	50.16	325.53	-1295.3	62.117	262.12	-1120.4	40.065	230.63	-1105.2	36.99	346.87	-1037.7	48.537	299.95	-1078.7	1516	336.55	-1132.7	1234.1	342.32
113	0.46667	-888.77	1217.7	326.83	-999.87	1456	507.56	-1018.1	1489.3	175.66	-992.45	1776.5	356.15	-906.85	1009.5	434.34	-915.06	1008.1	200.32	-1114.3	1025.9	371.75	-1114.4	1031.5	278.19	-957.83	901.31	510.49	-1020.9	903.61	144.37	-1002.3	1073.5	487.84	-1015.1	1088.8	179.01	-1129	988.74	325.64	-906.78	704.48	501.12	-801.64	639.25	460.12	-869.12	622.75	479.36	-833.69	727.65	481.25	-795.59	542.03	455.76	-828.69	530.7	332.49	-801.66	347.56	466.5	-724.5	306.99	443.81	-778.52	274.57	459.49	-747.73	381.46	454.71	-723.1	111.3	422.66	-697.65	139.15	345.72	-752.82	62.041	371.83	-729.62	43.018	344.9	-739.62	39.58	405.83	NaN	NaN	NaN	-559.78	113.68	344.54	-508.78	153.08	392.23	-1068.9	711.56	159.46	-1002.6	608.03	190.15	-1068.8	622.33	179.23	-999.58	693.13	163.6	-1081.5	513.55	206.7	-1083.5	517.41	331.66	-1190.4	353.69	207.19	-1148.4	255.06	235.82	-1209.1	288.24	221.62	-1154.6	313.38	235.5	-1240.2	114.72	249.88	-1223.2	114.05	335.72	-1301.5	86.678	296.82	-1292.9	51.117	325.56	-1295	63.001	262.13	-1120.3	39.982	230.61	-1105.1	37.032	346.84	-1037.5	48.203	299.91	-1073.3	1515.2	336.66	-1127	1233.1	342.42
114	0.47083	-883.2	1216.9	326.98	-994.41	1455.1	507.72	-1012.6	1488.5	175.79	-987.15	1775.7	356.42	-901.25	1008.6	434.42	-909.7	1007.2	200.38	-1108.6	1025.1	372.16	-1108.8	1030.8	278.6	-952.2	900.42	510.68	-1016	903.05	144.47	-996.53	1072.7	488.06	-1009.6	1088	179.28	-1123.4	988	326.04	-902.06	703.37	501.38	-797.13	637.9	460.11	-864.62	621.57	479.52	-828.91	726.37	481.48	-791.17	540.92	455.78	-824.58	529.42	332.56	-794.28	346.25	466.26	-716.41	307.03	443.42	-769.86	273.65	459.07	-740.9	381.13	454.49	-711.3	111.21	421.73	-686.53	139.76	344.85	-740.19	61.471	370.84	-716.61	42.905	343.81	-726.45	39.107	404.74	NaN	NaN	NaN	-548.09	116.91	343.36	-497.76	157.2	391.09	-1064.9	711.36	159.69	-998.97	607.48	190.03	-1064.9	622.22	179.15	-995.64	692.58	163.55	-1078.3	513.32	206.7	-1080	517.11	331.7	-1188.2	354.17	207.23	-1146.9	255.26	235.73	-1207.8	288.69	221.93	-1151.5	314.03	234.58	-1239.7	115.33	249.92	-1222.6	114.74	335.64	-1301.1	87.629	296.71	-1292.7	52.152	325.57	-1294.8	63.948	262.11	-1120.2	39.892	230.59	-1104.9	37.089	346.81	-1037.3	47.865	299.87	-1067.9	1514.3	336.78	-1121.2	1232.1	342.53
115	0.475	-877.6	1216	327.13	-988.93	1454.2	507.89	-1007	1487.6	175.92	-981.84	1774.8	356.7	-895.63	1007.7	434.52	-904.31	1006.3	200.47	-1102.8	1024.3	372.58	-1103.1	1030.1	279.03	-946.54	899.53	510.87	-1011	902.5	144.59	-990.79	1071.8	488.28	-1004.2	1087.2	179.57	-1117.9	987.27	326.44	-897.28	702.28	501.61	-792.53	636.61	460.13	-860.03	620.42	479.65	-824.07	725.13	481.72	-786.69	539.85	455.78	-820.38	528.21	332.62	-787.07	345	465.98	-708.54	307.04	443.02	-761.48	272.78	458.63	-734.19	380.79	454.25	-699.99	111.16	420.79	-675.87	140.38	343.99	-728.08	60.985	369.84	-704.14	42.855	342.71	-713.84	38.708	403.64	NaN	NaN	NaN	-536.89	119.98	342.2	-487.24	161.11	389.99	-1060.9	711.17	159.92	-995.26	606.94	189.92	-1060.9	622.1	179.09	-991.6	692.06	163.49	-1075	513.09	206.71	-1076.3	516.8	331.75	-1186	354.69	207.25	-1145.3	255.48	235.62	-1206.4	289.18	222.23	-1148.1	314.82	233.49	-1239.2	115.96	249.94	-1221.9	115.48	335.55	-1300.7	88.653	296.57	-1292.4	53.268	325.56	-1294.4	64.962	262.08	-1120.2	39.799	230.57	-1104.8	37.161	346.77	-1037.1	47.525	299.82	-1062.4	1513.5	336.9	-1115.4	1231.2	342.65
